<svg width="16" height="17" viewBox="0 0 16 17" fill="none" xmlns="http://www.w3.org/2000/svg">
<path fill-rule="evenodd" clip-rule="evenodd" d="M1.5 8.5C1.5 4.91136 4.41136 2 8 2C11.5886 2 14.5 4.91136 14.5 8.5C14.5 12.0886 11.5886 15 8 15C4.41136 15 1.5 12.0886 1.5 8.5ZM8 3C4.96364 3 2.5 5.46364 2.5 8.5C2.5 11.5364 4.96364 14 8 14C11.0364 14 13.5 11.5364 13.5 8.5C13.5 5.46364 11.0364 3 8 3Z" fill="#5C7D8E"/>
<path fill-rule="evenodd" clip-rule="evenodd" d="M8 4C8.27614 4 8.5 4.22386 8.5 4.5V8.5H11C11.2761 8.5 11.5 8.72386 11.5 9C11.5 9.27614 11.2761 9.5 11 9.5H8C7.72386 9.5 7.5 9.27614 7.5 9V4.5C7.5 4.22386 7.72386 4 8 4Z" fill="#5C7D8E"/>
</svg>
