<svg width="16" height="17" viewBox="0 0 16 17" fill="none" xmlns="http://www.w3.org/2000/svg">
<path d="M10.6667 9.16667C8.82573 9.16667 7.33333 8.42047 7.33333 7.5C7.33333 6.57953 8.82573 5.83334 10.6667 5.83334C12.5076 5.83334 14 6.57953 14 7.5C14 8.42047 12.5076 9.16667 10.6667 9.16667Z" stroke="#5C7D8E" stroke-linecap="round" stroke-linejoin="round"/>
<path d="M7.33333 10.1667C7.33333 11.0871 8.82573 11.8333 10.6667 11.8333C12.5076 11.8333 14 11.0871 14 10.1667" stroke="#5C7D8E" stroke-linecap="round" stroke-linejoin="round"/>
<path d="M2 6.83334C2 7.7538 3.49239 8.5 5.33333 8.5C6.08389 8.5 6.77647 8.376 7.33367 8.16667" stroke="#5C7D8E" stroke-linecap="round" stroke-linejoin="round"/>
<path d="M2 9.16666C2 10.0871 3.49239 10.8333 5.33333 10.8333C6.08374 10.8333 6.7762 10.7093 7.33333 10.5001" stroke="#5C7D8E" stroke-linecap="round" stroke-linejoin="round"/>
<path d="M2 4.16666V11.5C2 12.4205 3.49239 13.1667 5.33333 13.1667C6.08375 13.1667 6.7762 13.0426 7.33333 12.8333" stroke="#5C7D8E" stroke-linecap="round" stroke-linejoin="round"/>
<path d="M8.66667 6.16666V4.16666" stroke="#5C7D8E" stroke-linecap="round" stroke-linejoin="round"/>
<path d="M7.33333 7.5V12.8333C7.33333 13.7538 8.82573 14.5 10.6667 14.5C12.5076 14.5 14 13.7538 14 12.8333V7.5" stroke="#5C7D8E" stroke-linecap="round" stroke-linejoin="round"/>
<path d="M5.33333 5.83333C3.49239 5.83333 2 5.08714 2 4.16667C2 3.24619 3.49239 2.5 5.33333 2.5C7.17427 2.5 8.66667 3.24619 8.66667 4.16667C8.66667 5.08714 7.17427 5.83333 5.33333 5.83333Z" stroke="#5C7D8E" stroke-linecap="round" stroke-linejoin="round"/>
</svg>
