<svg width="24" height="24" viewBox="0 0 24 24" fill="none" xmlns="http://www.w3.org/2000/svg">
<path fill-rule="evenodd" clip-rule="evenodd" d="M11.9272 2.81749C11.9272 2.81753 11.9271 2.81744 11.9272 2.81749ZM12 2.85795L20.25 7.44128V16.5587L12 21.142L3.74999 16.5587L3.74997 7.44129L12 2.85795ZM11.9272 21.1825C11.9271 21.1825 11.9272 21.1825 11.9272 21.1825ZM12.0726 2.81762C12.0727 2.81757 12.0725 2.81766 12.0726 2.81762ZM11.3443 1.50625C11.7521 1.27973 12.2479 1.27973 12.6556 1.50625L21.0556 6.17292C21.4839 6.41096 21.75 6.86264 21.75 7.35303V16.647C21.75 17.1373 21.4842 17.5889 21.0558 17.827L12.6557 22.4937C12.6557 22.4937 12.6557 22.4936 12.6557 22.4937C12.248 22.7202 11.7521 22.7202 11.3444 22.4937C11.3443 22.4937 11.3444 22.4937 11.3444 22.4937L2.94437 17.8271C2.51614 17.589 2.24999 17.1374 2.24999 16.647L2.24997 7.35303C2.24997 6.86274 2.51579 6.41101 2.94436 6.17292C2.94436 6.17292 2.94436 6.17292 2.94436 6.17292L11.3443 1.50625Z" fill="black"/>
<path fill-rule="evenodd" clip-rule="evenodd" d="M21.1556 6.91352C21.3568 7.27561 21.2263 7.73221 20.8642 7.93337L12.6557 12.4937C12.6557 12.4937 12.6556 12.4937 12.6556 12.4937C12.2479 12.7202 11.7521 12.7202 11.3444 12.4937C11.3443 12.4937 11.3443 12.4937 11.3443 12.4937L3.16419 7.94917C2.80211 7.74801 2.67165 7.29141 2.87281 6.92932C3.07397 6.56724 3.53057 6.43678 3.89266 6.63794L12 11.142L20.1358 6.62214C20.4978 6.42098 20.9544 6.55144 21.1556 6.91352ZM11.9272 11.1825C11.9272 11.1825 11.9272 11.1824 11.9272 11.1824ZM12.0727 11.1824C12.0728 11.1824 12.0728 11.1825 12.0728 11.1825Z" fill="black"/>
<path fill-rule="evenodd" clip-rule="evenodd" d="M12 11.25C12.4142 11.25 12.75 11.5858 12.75 12V21C12.75 21.4142 12.4142 21.75 12 21.75C11.5858 21.75 11.25 21.4142 11.25 21V12C11.25 11.5858 11.5858 11.25 12 11.25Z" fill="black"/>
<path fill-rule="evenodd" clip-rule="evenodd" d="M3.89139 7.49522L11.6914 11.8285C11.8819 11.9344 12 12.1351 12 12.353V20.9803C12 21.4378 11.5085 21.727 11.1086 21.5048L3.30861 17.1715C3.11813 17.0656 3 16.8649 3 16.647V8.01972C3 7.56223 3.49147 7.27305 3.89139 7.49522ZM7.5 11.5C7.5 11.2239 7.27614 11 7 11C6.72386 11 6.5 11.2239 6.5 11.5V15C6.5 15.1326 6.55268 15.2598 6.64645 15.3536L8.14645 16.8536C8.34171 17.0488 8.65829 17.0488 8.85355 16.8536C9.04882 16.6583 9.04882 16.3417 8.85355 16.1465L7.5 14.7929V11.5Z" fill="black"/>
</svg>
